<svg xmlns="http://www.w3.org/2000/svg" version="1.1" xmlns:xlink="http://www.w3.org/1999/xlink" xmlns:svgjs="http://svgjs.com/svgjs" width="512" height="512" x="0" y="0" viewBox="0 0 100 100" style="enable-background:new 0 0 512 512" xml:space="preserve"><g><path d="M87.043 15.734a.752.752 0 0 0-.916.536C78.713 44.551 59.86 59.688 45.35 67.406c-13.833 7.359-26.461 9.568-29.443 10.011l4.565-5.804a.75.75 0 0 0-1.18-.928l-5.995 7.623a.752.752 0 0 0 .229 1.121l8.714 4.769a.75.75 0 0 0 .72-1.316l-7.186-3.932c2.327-.323 15.622-2.435 30.229-10.194 14.794-7.858 34.016-23.277 41.573-52.107a.748.748 0 0 0-.533-.915z" fill="#ffd886" data-original="#000000"></path></g></svg>