<?xml version="1.0" encoding="UTF-8" standalone="no"?>
<!-- Created with Inkscape (http://www.inkscape.org/) -->

<svg
   version="1.1"
   id="svg7257"
   xml:space="preserve"
   width="682.66669"
   height="682.66669"
   viewBox="0 0 682.66669 682.66669"
   xmlns="http://www.w3.org/2000/svg"
   xmlns:svg="http://www.w3.org/2000/svg"><defs
     id="defs7261"><clipPath
       clipPathUnits="userSpaceOnUse"
       id="clipPath7279"><path
         d="M 0,512 H 512 V 0 H 0 Z"
         id="path7277" /></clipPath></defs><g
     id="g7263"
     transform="matrix(1.3333333,0,0,-1.3333333,0,682.66667)"><g
       id="g7265"
       transform="translate(199.8071,191.8711)"><path
         d="M 0,0 V 32.064"
         style="fill:none;stroke:#000000;stroke-width:15;stroke-linecap:round;stroke-linejoin:round;stroke-miterlimit:10;stroke-dasharray:none;stroke-opacity:1"
         id="path7267" /></g><g
       id="g7269"
       transform="translate(312.0327,191.8711)"><path
         d="M 0,0 V 32.064"
         style="fill:none;stroke:#000000;stroke-width:15;stroke-linecap:round;stroke-linejoin:round;stroke-miterlimit:10;stroke-dasharray:none;stroke-opacity:1"
         id="path7271" /></g><g
       id="g7273"><g
         id="g7275"
         clip-path="url(#clipPath7279)"><g
           id="g7281"
           transform="translate(207.4819,186.7163)"><path
             d="m 0,0 -16.389,9.105 c -3.989,2.216 -9.021,0.66 -11.062,-3.422 l -12.288,-24.577 27.252,-47.691 c 2.497,-4.37 8.356,-5.384 12.176,-2.109 l 48.749,41.784 -21.866,12.148"
             style="fill:none;stroke:#000000;stroke-width:15;stroke-linecap:round;stroke-linejoin:round;stroke-miterlimit:10;stroke-dasharray:none;stroke-opacity:1"
             id="path7283" /></g><g
           id="g7285"
           transform="translate(331.8091,192.3989)"><path
             d="m 0,0 c -2.041,4.082 -7.073,5.639 -11.063,3.422 l -64.826,-36.014 48.748,-41.785 c 3.821,-3.275 9.68,-2.26 12.177,2.109 l 27.253,47.692 z"
             style="fill:none;stroke:#000000;stroke-width:15;stroke-linecap:round;stroke-linejoin:round;stroke-miterlimit:10;stroke-dasharray:none;stroke-opacity:1"
             id="path7287" /></g><g
           id="g7289"
           transform="translate(280.0479,135.7583)"><path
             d="m 0,0 -4.362,-13.086 c -2.182,-6.547 -8.308,-10.963 -15.209,-10.963 h -8.954 c -6.901,0 -13.027,4.416 -15.209,10.963 L -48.097,0"
             style="fill:none;stroke:#000000;stroke-width:15;stroke-linecap:round;stroke-linejoin:round;stroke-miterlimit:10;stroke-dasharray:none;stroke-opacity:1"
             id="path7291" /></g><g
           id="g7293"
           transform="translate(243.8394,112.5093)"><path
             d="M 0,0 -7.4,-66.554"
             style="fill:none;stroke:#000000;stroke-width:15;stroke-linecap:round;stroke-linejoin:round;stroke-miterlimit:10;stroke-dasharray:none;stroke-opacity:1"
             id="path7295" /></g><g
           id="g7297"
           transform="translate(268.0332,113.6455)"><path
             d="M 0,0 7.633,-68.646"
             style="fill:none;stroke:#000000;stroke-width:15;stroke-linecap:round;stroke-linejoin:round;stroke-miterlimit:10;stroke-dasharray:none;stroke-opacity:1"
             id="path7299" /></g><g
           id="g7301"
           transform="translate(344.0981,167.8228)"><path
             d="M 0,0 -88.178,-160.323 -176.355,0"
             style="fill:none;stroke:#000000;stroke-width:15;stroke-linecap:round;stroke-linejoin:round;stroke-miterlimit:10;stroke-dasharray:none;stroke-opacity:1"
             id="path7303" /></g><g
           id="g7305"
           transform="translate(63.6128,7.5)"><path
             d="m 0,0 v 92.743 c 0,21.111 13.767,39.754 33.942,45.967 l 70.188,21.613"
             style="fill:none;stroke:#000000;stroke-width:15;stroke-linecap:round;stroke-linejoin:round;stroke-miterlimit:10;stroke-dasharray:none;stroke-opacity:1"
             id="path7307" /></g><g
           id="g7309"
           transform="translate(448.3872,7.5)"><path
             d="m 0,0 v 92.743 c 0,21.111 -13.767,39.754 -33.942,45.967 l -70.188,21.613"
             style="fill:none;stroke:#000000;stroke-width:15;stroke-linecap:round;stroke-linejoin:round;stroke-miterlimit:10;stroke-dasharray:none;stroke-opacity:1"
             id="path7311" /></g><g
           id="g7313"
           transform="translate(127.583,344.1772)"><path
             d="m 0,0 v 88.178 c 0,30.99 25.123,56.113 56.113,56.113"
             style="fill:none;stroke:#000000;stroke-width:15;stroke-linecap:round;stroke-linejoin:round;stroke-miterlimit:10;stroke-dasharray:none;stroke-opacity:1"
             id="path7315" /></g><g
           id="g7317"
           transform="translate(135.5991,344.1772)"><path
             d="m 0,0 v 0 c 22.136,0 40.081,17.945 40.081,40.081 v 28.722 c 0,10.057 9.152,17.631 19.032,15.749 L 188.91,59.829 c 11.325,-2.157 19.526,-12.047 19.549,-23.576 l 0.04,-20.22 C 208.499,7.178 215.677,0 224.531,0 h 12.025 c 11.749,0 21.137,-10.11 19.936,-22.106 -1.045,-10.432 -10.598,-17.975 -21.082,-17.975 h -10.882 v 7.939 c -0.042,-57.517 -46.679,-104.132 -104.206,-104.132 -57.553,0 -104.21,46.656 -104.21,104.21 v -8.017 H 4.088 c -11.75,0 -21.138,10.113 -19.936,22.108 C -14.803,-7.542 -5.25,0 5.233,0"
             style="fill:none;stroke:#000000;stroke-width:15;stroke-linecap:round;stroke-linejoin:round;stroke-miterlimit:10;stroke-dasharray:none;stroke-opacity:1"
             id="path7319" /></g><g
           id="g7321"
           transform="translate(384.0991,344.1772)"><path
             d="m 0,0 v 64.129 c 0,53.126 -43.067,96.194 -96.193,96.194 h -72.146 c -17.708,0 -32.064,-14.356 -32.064,-32.065"
             style="fill:none;stroke:#000000;stroke-width:15;stroke-linecap:round;stroke-linejoin:round;stroke-miterlimit:10;stroke-dasharray:none;stroke-opacity:1"
             id="path7323" /></g><g
           id="g7325"
           transform="translate(207.8232,336.1611)"><path
             d="M 0,0 V -8.016"
             style="fill:none;stroke:#000000;stroke-width:15;stroke-linecap:round;stroke-linejoin:round;stroke-miterlimit:10;stroke-dasharray:none;stroke-opacity:1"
             id="path7327" /></g><g
           id="g7329"
           transform="translate(304.0171,336.1611)"><path
             d="M 0,0 V -8.016"
             style="fill:none;stroke:#000000;stroke-width:15;stroke-linecap:round;stroke-linejoin:round;stroke-miterlimit:10;stroke-dasharray:none;stroke-opacity:1"
             id="path7331" /></g><g
           id="g7333"
           transform="translate(231.8721,280.0483)"><path
             d="m 0,0 c 4.836,-4.772 13.74,-8.016 24.048,-8.016 10.309,0 19.212,3.244 24.049,8.016"
             style="fill:none;stroke:#000000;stroke-width:15;stroke-linecap:round;stroke-linejoin:round;stroke-miterlimit:10;stroke-dasharray:none;stroke-opacity:1"
             id="path7335" /></g><g
           id="g7337"
           transform="translate(199.8071,360.2095)"><path
             d="M 0,0 H 16.033"
             style="fill:none;stroke:#000000;stroke-width:15;stroke-linecap:round;stroke-linejoin:round;stroke-miterlimit:10;stroke-dasharray:none;stroke-opacity:1"
             id="path7339" /></g><g
           id="g7341"
           transform="translate(296.001,360.2095)"><path
             d="M 0,0 H 16.032"
             style="fill:none;stroke:#000000;stroke-width:15;stroke-linecap:round;stroke-linejoin:round;stroke-miterlimit:10;stroke-dasharray:none;stroke-opacity:1"
             id="path7343" /></g><g
           id="g7345"
           transform="translate(127.6621,151.7905)"><path
             d="m 0,0 v -16.032 c 0,-8.855 7.178,-16.033 16.032,-16.033 h 16.032 l -5.857,-29.288 c -1.371,-6.853 0.308,-13.963 4.599,-19.48 l 49.355,-63.458"
             style="fill:none;stroke:#000000;stroke-width:15;stroke-linecap:round;stroke-linejoin:round;stroke-miterlimit:10;stroke-dasharray:none;stroke-opacity:1"
             id="path7347" /></g><g
           id="g7349"
           transform="translate(384.1782,151.7905)"><path
             d="m 0,0 v -16.032 c 0,-8.855 -7.178,-16.033 -16.032,-16.033 h -16.032 l 5.857,-29.288 c 1.371,-6.853 -0.308,-13.963 -4.599,-19.48 l -49.355,-63.458"
             style="fill:none;stroke:#000000;stroke-width:15;stroke-linecap:round;stroke-linejoin:round;stroke-miterlimit:10;stroke-dasharray:none;stroke-opacity:1"
             id="path7351" /></g></g></g></g></svg>
