<?xml version="1.0" encoding="UTF-8"?>
<svg xmlns="http://www.w3.org/2000/svg" xmlns:xlink="http://www.w3.org/1999/xlink" version="1.1" id="Capa_1" x="0px" y="0px" viewBox="0 0 512 512" style="enable-background:new 0 0 512 512;" xml:space="preserve" width="512" height="512">
<g>
	<g>
		<g>
			<g>
				<path style="fill:none;stroke:#000000;stroke-width:15;stroke-linecap:round;stroke-linejoin:round;stroke-miterlimit:10;" d="&#10;&#9;&#9;&#9;&#9;&#9;M212.75,332.27v5.47c0,8.35-5.33,15.76-13.24,18.42l-84.4,28.4c-23.74,7.99-39.72,30.23-39.72,55.28v64.66"/>
				<path style="fill:none;stroke:#000000;stroke-width:15;stroke-linecap:round;stroke-linejoin:round;stroke-miterlimit:10;" d="&#10;&#9;&#9;&#9;&#9;&#9;M299.25,332.27v5.47c0,8.35,5.33,15.76,13.24,18.42l84.4,28.4c23.74,7.99,39.72,30.23,39.72,55.28v64.66"/>
			</g>
		</g>
		<g>
			<path style="fill:none;stroke:#000000;stroke-width:15;stroke-linecap:round;stroke-linejoin:round;stroke-miterlimit:10;" d="&#10;&#9;&#9;&#9;&#9;M351.92,239.18h5.91c7.51,0,14.3-3.04,19.22-7.96c4.92-4.92,7.96-11.72,7.96-19.22c0-15.01-12.17-27.18-27.18-27.18h-5.91"/>
			<path style="fill:none;stroke:#000000;stroke-width:15;stroke-linecap:round;stroke-linejoin:round;stroke-miterlimit:10;" d="&#10;&#9;&#9;&#9;&#9;M160.08,239.18h-8.66c-7.51,0-14.31-3.04-19.23-7.96c-4.92-4.92-7.96-11.72-7.96-19.22c0-15.01,12.17-27.18,27.19-27.18h8.66"/>
		</g>
		<path style="fill:none;stroke:#000000;stroke-width:15;stroke-linecap:round;stroke-linejoin:round;stroke-miterlimit:10;" d="&#10;&#9;&#9;&#9;M351.92,182.64c0,21.75,0,46.65,0,64c0,52.97-42.94,95.92-95.92,95.92s-95.92-42.95-95.92-95.92v-65.9"/>
		<path style="fill:none;stroke:#000000;stroke-width:15;stroke-linecap:round;stroke-linejoin:round;stroke-miterlimit:10;" d="&#10;&#9;&#9;&#9;M377.428,73.948c-2.807-24.2-23.598-43.654-49.707-46.604c-7.19-0.813-14.141-0.36-20.657,1.119&#10;&#9;&#9;&#9;c-2.764,0.627-5.663-0.265-7.504-2.273C289.086,14.76,273.464,7.5,256,7.5c-17.464,0-33.085,7.26-43.56,18.69&#10;&#9;&#9;&#9;c-1.841,2.008-4.74,2.9-7.504,2.273c-5.383-1.222-11.062-1.743-16.927-1.43c-29.02,1.552-52.403,23.437-53.716,50.306&#10;&#9;&#9;&#9;c-0.929,19.021,9.021,35.939,24.572,45.907c2.407,1.543,3.615,4.247,3.11,6.916l-5.632,40.101&#10;&#9;&#9;&#9;c-1.18,8.398,6.479,15.332,14.719,13.326c24.082-5.861,54.978-10.79,90.907-10.349c31.919,0.392,59.607,4.921,81.8,10.315&#10;&#9;&#9;&#9;c8.177,1.988,15.784-4.881,14.692-13.225c-1.916-14.633-3.833-31.785-5.749-41.992c-0.476-2.535,0.587-5.116,2.789-6.688&#10;&#9;&#9;&#9;C370.569,110.896,379.677,93.343,377.428,73.948z"/>
		<path style="fill:none;stroke:#000000;stroke-width:15;stroke-linecap:round;stroke-linejoin:round;stroke-miterlimit:10;" d="&#10;&#9;&#9;&#9;M316.268,134.193c14.778,2.558,27.775,5.768,38.718,8.949"/>
		<path style="fill:none;stroke:#000000;stroke-width:15;stroke-linecap:round;stroke-linejoin:round;stroke-miterlimit:10;" d="&#10;&#9;&#9;&#9;M160.307,142.034c22.837-6.361,53.615-12.484,90.245-13.014c10.703-0.155,20.951,0.181,30.693,0.885"/>
		<path style="fill:none;stroke:#000000;stroke-width:15;stroke-linecap:round;stroke-linejoin:round;stroke-miterlimit:10;" d="&#10;&#9;&#9;&#9;M258.789,387.316l-27.962,13.101c-12.749,5.973-20.893,18.782-20.893,32.861V504.5"/>
		
			<line style="fill:none;stroke:#000000;stroke-width:15;stroke-linecap:round;stroke-linejoin:round;stroke-miterlimit:10;" x1="319.936" y1="358.667" x2="290.527" y2="372.446"/>
		
			<line style="fill:none;stroke:#000000;stroke-width:15;stroke-linecap:round;stroke-linejoin:round;stroke-miterlimit:10;" x1="238.118" y1="397" x2="190.571" y2="360.16"/>
		
			<line style="fill:none;stroke:#000000;stroke-width:15;stroke-linecap:round;stroke-linejoin:round;stroke-miterlimit:10;" x1="165.387" y1="504.5" x2="165.387" y2="459.5"/>
		
			<line style="fill:none;stroke:#000000;stroke-width:15;stroke-linecap:round;stroke-linejoin:round;stroke-miterlimit:10;" x1="361.613" y1="504.5" x2="361.613" y2="459.5"/>
		<g>
			<path style="fill:none;stroke:#000000;stroke-width:15;stroke-linecap:round;stroke-linejoin:round;stroke-miterlimit:10;" d="&#10;&#9;&#9;&#9;&#9;M237.326,293.042c2.842,1.589,9.859,4.73,18.674,4.579c9.615-0.165,15.969-4.152,18.674-5.932"/>
			<g>
				<path style="fill:none;stroke:#000000;stroke-width:15;stroke-linecap:round;stroke-linejoin:round;stroke-miterlimit:10;" d="&#10;&#9;&#9;&#9;&#9;&#9;M289.555,204.576c2.733-0.999,6.121-1.929,10.062-2.359c10.016-1.093,18.111,1.642,22.492,3.538"/>
				<path style="fill:none;stroke:#000000;stroke-width:15;stroke-linecap:round;stroke-linejoin:round;stroke-miterlimit:10;" d="&#10;&#9;&#9;&#9;&#9;&#9;M222.445,204.576c-2.733-0.999-6.121-1.929-10.062-2.359c-10.016-1.093-18.111,1.642-22.492,3.538"/>
				
					<line style="fill:none;stroke:#000000;stroke-width:15;stroke-linecap:round;stroke-linejoin:round;stroke-miterlimit:10;" x1="305.833" y1="229.75" x2="305.833" y2="246.032"/>
				
					<line style="fill:none;stroke:#000000;stroke-width:15;stroke-linecap:round;stroke-linejoin:round;stroke-miterlimit:10;" x1="206.167" y1="229.75" x2="206.167" y2="246.032"/>
			</g>
		</g>
	</g>
	<g>
		
			<line style="fill:none;stroke:#000000;stroke-width:15;stroke-linecap:round;stroke-linejoin:round;stroke-miterlimit:10;" x1="249.101" y1="443.002" x2="249.101" y2="443.002"/>
		
			<line style="fill:none;stroke:#000000;stroke-width:15;stroke-linecap:round;stroke-linejoin:round;stroke-miterlimit:10;" x1="249.101" y1="473.002" x2="249.101" y2="473.002"/>
		
			<line style="fill:none;stroke:#000000;stroke-width:15;stroke-linecap:round;stroke-linejoin:round;stroke-miterlimit:10;" x1="249.101" y1="504.5" x2="249.101" y2="504.5"/>
	</g>
</g>















</svg>
